<?xml version="1.0" encoding="UTF-8"?>
<svg xmlns="http://www.w3.org/2000/svg" id="Laag_2" data-name="Laag 2" version="1.1" viewBox="0 0 284.1 107.6">
  <defs>
    <style>
      .cls-1 {
        fill: #53ae32;
      }

      .cls-1, .cls-2 {
        stroke-width: 0px;
      }

      .cls-2 {
        fill: #000;
      }
    </style>
  </defs>
  <g>
    <path class="cls-2" d="M263.9,73v12.5c0,6.3-5,11.5-11.2,11.5H21.7c-6.2,0-11.2-5.1-11.2-11.5V10.6h242.3c6.2,0,11.2,5.1,11.2,11.5v10.4h10v-10.4c0-11.8-9.5-21.5-21.2-21.5H.5v84.9c0,11.8,9.5,21.5,21.2,21.5h231.1c11.7,0,21.2-9.6,21.2-21.5v-12.5h-10Z"></path>
    <polygon class="cls-2" points="248.5 40.2 239.4 48.5 241.7 48.1 283.8 48.1 283.8 57.5 241.7 57.5 239.5 57.1 248.5 65.3 241.5 71.5 224.5 52.7 241.5 33.9 248.5 40.2"></polygon>
  </g>
  <g>
    <path class="cls-1" d="M53.3,47.7l-4.6,13.7h8.9l-4.3-13.7ZM63.3,79.6l-2.4-7.6h-15.8l-2.5,7.6h-13.2l18.7-51.3h9.7l18.7,51.3h-13.2Z"></path>
    <path class="cls-1" d="M100.6,80c-7.9,0-14.3-1.4-19.5-6.8l8.1-8.1c2.7,2.7,7.4,3.6,11.5,3.6s7.4-1.7,7.4-4.6-.3-2.2-1-3c-.6-.6-1.7-1.2-3.4-1.4l-6.2-.9c-4.5-.6-8-2.2-10.3-4.5-2.4-2.5-3.5-5.9-3.5-10.3,0-9.4,7.1-16.2,18.7-16.2s12.9,1.7,17.3,6.1l-7.9,7.9c-3.2-3.2-7.5-3-9.7-3-4.4,0-6.2,2.5-6.2,4.8s.2,1.6,1,2.4c.6.6,1.7,1.3,3.5,1.5l6.2.9c4.6.6,7.9,2.1,10.1,4.3,2.7,2.7,3.8,6.5,3.8,11.2,0,10.5-9,16.2-19.8,16.2"></path>
    <polygon class="cls-1" points="157.5 79.6 145.7 58.6 141.4 63.5 141.4 79.6 128.9 79.6 128.9 28.3 141.4 28.3 141.4 46.4 156.2 28.3 171.7 28.3 154.2 49 172.3 79.6 157.5 79.6"></polygon>
    <polygon class="cls-1" points="202.9 79.6 193.5 79.6 176.6 28.3 189.6 28.3 198.3 57 206.8 28.3 219.9 28.3 202.9 79.6"></polygon>
  </g>
</svg>
