<svg class="" style="display:inline-block;vertical-align:middle" width="72" height="72" viewBox="0 0 1280 1024" xmlns="http://www.w3.org/2000/svg"><path style="fill:#565D66" d="M1088 448c88.4 0 160-71.6 160-160s-71.6-160-160-160-160 71.6-160 160 71.6 160 160 160zM1088 192c53 0 96 43 96 96s-43 96-96 96-96-43-96-96 43-96 96-96zM640 512c123.8 0 224-100.2 224-224s-100.2-224-224-224-224 100.2-224 224 100.2 224 224 224zM640 128c88.2 0 160 71.8 160 160s-71.8 160-160 160-160-71.8-160-160 71.8-160 160-160zM1128 512h-80c-30.4 0-58.6 9.6-82.2 25.8 18.8 12.8 35.8 27.8 50.8 44.8 9.8-4.2 20.4-6.6 31.4-6.6h80c48.4 0 88 43 88 96 0 17.6 14.4 32 32 32s32-14.4 32-32c0-88.2-68.2-160-152-160zM192 448c88.4 0 160-71.6 160-160s-71.6-160-160-160-160 71.6-160 160 71.6 160 160 160zM192 192c53 0 96 43 96 96s-43 96-96 96-96-43-96-96 43-96 96-96zM800.2 552c-66.8 0-83.4 24-160.2 24s-93.4-24-160.2-24c-72.6 0-143.2 32.4-184.6 93.8-24.8 36.8-39.2 81-39.2 128.6v89.6c0 53 43 96 96 96h576c53 0 96-43 96-96v-89.6c0-47.6-14.4-91.8-39.2-128.6-41.4-61.4-112-93.8-184.6-93.8zM960 864c0 17.6-14.4 32-32 32h-576c-17.6 0-32-14.4-32-32v-89.6c0-33.2 9.8-65.4 28.2-92.8 27.6-41 76.8-65.6 131.4-65.6 54.8 0 74.4 24 160.4 24s105.6-24 160.2-24c54.6 0 103.8 24.6 131.4 65.6 18.4 27.4 28.2 59.6 28.2 92.8v89.6zM314.2 537.8c-23.8-16.2-52-25.8-82.2-25.8h-80c-83.8 0-152 71.8-152 160 0 17.6 14.4 32 32 32s32-14.4 32-32c0-53 39.6-96 88-96h80c11 0 21.6 2.4 31.4 6.6 15-17 32.2-32 50.8-44.8z"></path></svg>