<svg class="" style="display:inline-block;vertical-align:middle" width="72" height="72" viewBox="0 0 1024 1024" xmlns="http://www.w3.org/2000/svg"><path style="fill:#565D66" d="M928 8.6l-896 516.8c-46 26.6-41.4 94.4 7.6 114.6l280.4 116v204c0 60.4 75.6 86.6 113.4 40.6l121.4-147.6 252.8 104.4c38.2 15.8 81.4-8.4 87.6-49.4l128-834.2c8.2-53.4-49.2-91.8-95.2-65.2zM384 960v-177.6l109 45-109 132.6zM832 898.2l-412.4-170.4 399-471.6c9.6-11.2-5.8-26.4-17-16.8l-510.6 435.2-227-93.6 896-517-128 834.2z"></path></svg>